<svg width="1012" height="198" viewBox="0 0 1012 198" fill="none" xmlns="http://www.w3.org/2000/svg">
<rect width="1012" height="198" fill="white"/>
<path d="M506.4 135.384H366.56V62.616H646.24V135.384H506.4Z" stroke="#222222" stroke-width="3"/>
<path d="M382.56 118.824H392.576L394.144 107.4L394.656 99.384L394.88 99.336L398.288 112.936H405.184L412.288 99.336L412.576 99.384L410.896 107.4L409.264 118.824H419.344L424.896 79.176H414.864L403.728 98.552L398.128 79.176H388.096L382.56 118.824ZM445.776 118.824L447.968 103.192L465.216 79.176H453.456L444.272 93.112L439.12 79.176H427.472L437.936 103.192L435.76 118.824H445.776ZM462.192 118.824H472.208L473.84 107.224H480.16C489.744 107.224 495.28 100.952 496.128 93.448C496.912 86.28 493.264 79.176 483.584 79.176H467.728L462.192 118.824ZM475.072 98.328L476.464 88.52H482.288C485.2 88.52 486.496 90.536 486.16 93.176C485.824 95.864 484.032 98.376 480.896 98.328H475.072ZM497.696 105.768C496.4 114.84 503.968 119.384 512.192 119.384C520.816 119.384 529.28 114.84 530.56 105.768L532.528 92.216C533.808 83.144 526.192 78.616 517.968 78.616C509.728 78.616 500.992 83.096 499.648 92.216L497.696 105.768ZM509.68 92.216C510.128 89.256 513.648 87.736 516.896 87.736C520.144 87.736 522.944 89.256 522.496 92.216L520.544 105.496C520.096 108.632 516.56 110.088 513.312 110.088C510.288 110.088 507.328 108.632 507.712 105.768L509.68 92.216ZM532.752 112.216C535.776 116.968 541.648 119.384 546.416 119.384C554.976 119.384 561.696 115.512 563.152 107.784C565.008 97.928 558.288 95.304 551.392 94.008C548.368 93.336 546.352 92.328 546.64 90.04C546.864 88.024 548.992 87.064 551.504 87.128C553.808 87.176 556.432 88.072 558.112 89.976L565.392 84.936C561.984 79.96 557.504 78.616 552.688 78.616C545.408 78.616 538.24 81.464 536.72 89.592C535.328 97.096 540.928 102.072 547.136 103.08C550.336 103.528 553.808 104.6 553.36 107.064C552.96 109.128 550.608 110.088 547.92 110.088C544.96 110.088 541.648 108.792 539.92 106.28L532.752 112.216ZM599.216 88.296L600.56 79.112H569.04L567.696 88.296H578.384L574.192 118.824H584.32L588.528 88.296H599.216ZM597.6 112.216C600.624 116.968 606.496 119.384 611.264 119.384C619.824 119.384 626.544 115.512 628 107.784C629.856 97.928 623.136 95.304 616.24 94.008C613.216 93.336 611.2 92.328 611.488 90.04C611.712 88.024 613.84 87.064 616.352 87.128C618.656 87.176 621.28 88.072 622.96 89.976L630.24 84.936C626.832 79.96 622.352 78.616 617.536 78.616C610.256 78.616 603.088 81.464 601.568 89.592C600.176 97.096 605.776 102.072 611.984 103.08C615.184 103.528 618.656 104.6 618.208 107.064C617.808 109.128 615.456 110.088 612.768 110.088C609.808 110.088 606.496 108.792 604.768 106.28L597.6 112.216Z" fill="#222222"/>
</svg>
