<svg width="178" height="50" viewBox="0 0 178 50" fill="none" xmlns="http://www.w3.org/2000/svg">
<path d="M89 47.74H1.60001V2.26H176.4V47.74H89Z" stroke="#222222" stroke-width="3"/>
<path d="M11.6 37.39H17.86L18.84 30.25L19.16 25.24L19.3 25.21L21.43 33.71H25.74L30.18 25.21L30.36 25.24L29.31 30.25L28.29 37.39H34.59L38.06 12.61H31.79L24.83 24.72L21.33 12.61H15.06L11.6 37.39ZM51.11 37.39L52.48 27.62L63.26 12.61H55.91L50.17 21.32L46.95 12.61H39.67L46.21 27.62L44.85 37.39H51.11ZM61.37 37.39H67.63L68.65 30.14H72.6C78.59 30.14 82.05 26.22 82.58 21.53C83.07 17.05 80.79 12.61 74.74 12.61H64.83L61.37 37.39ZM69.42 24.58L70.29 18.45H73.93C75.75 18.45 76.56 19.71 76.35 21.36C76.14 23.04 75.02 24.61 73.06 24.58H69.42ZM83.56 29.23C82.75 34.9 87.48 37.74 92.62 37.74C98.01 37.74 103.3 34.9 104.1 29.23L105.33 20.76C106.13 15.09 101.37 12.26 96.23 12.26C91.08 12.26 85.62 15.06 84.78 20.76L83.56 29.23ZM91.05 20.76C91.33 18.91 93.53 17.96 95.56 17.96C97.59 17.96 99.34 18.91 99.06 20.76L97.84 29.06C97.56 31.02 95.35 31.93 93.32 31.93C91.43 31.93 89.58 31.02 89.82 29.23L91.05 20.76ZM105.47 33.26C107.36 36.23 111.03 37.74 114.01 37.74C119.36 37.74 123.56 35.32 124.47 30.49C125.63 24.33 121.43 22.69 117.12 21.88C115.23 21.46 113.97 20.83 114.15 19.4C114.29 18.14 115.62 17.54 117.19 17.58C118.63 17.61 120.27 18.17 121.32 19.36L125.87 16.21C123.74 13.1 120.94 12.26 117.93 12.26C113.38 12.26 108.9 14.04 107.95 19.12C107.08 23.81 110.58 26.92 114.46 27.55C116.46 27.83 118.63 28.5 118.35 30.04C118.1 31.33 116.63 31.93 114.95 31.93C113.1 31.93 111.03 31.12 109.95 29.55L105.47 33.26ZM147.01 18.31L147.85 12.57H128.15L127.31 18.31H133.99L131.37 37.39H137.7L140.33 18.31H147.01ZM146 33.26C147.89 36.23 151.56 37.74 154.54 37.74C159.89 37.74 164.09 35.32 165 30.49C166.16 24.33 161.96 22.69 157.65 21.88C155.76 21.46 154.5 20.83 154.68 19.4C154.82 18.14 156.15 17.54 157.72 17.58C159.16 17.61 160.8 18.17 161.85 19.36L166.4 16.21C164.27 13.1 161.47 12.26 158.46 12.26C153.91 12.26 149.43 14.04 148.48 19.12C147.61 23.81 151.11 26.92 154.99 27.55C156.99 27.83 159.16 28.5 158.88 30.04C158.63 31.33 157.16 31.93 155.48 31.93C153.63 31.93 151.56 31.12 150.48 29.55L146 33.26Z" fill="#222222"/>
</svg>
